<svg id="Ebene_1" data-name="Ebene 1" xmlns="http://www.w3.org/2000/svg" viewBox="0 0 1000 89.83"><defs><style>.cls-1{fill:#f091ff;}</style></defs><path class="cls-1" d="M0,5.13H74.75V20H17V41.87H66v14H17V88.71H0Z"/><path class="cls-1" d="M73,57a29.64,29.64,0,0,1,2.62-12.27,31.07,31.07,0,0,1,7.54-10.35,36.82,36.82,0,0,1,12.06-7.17,46.11,46.11,0,0,1,16.23-2.67,46.37,46.37,0,0,1,16.28,2.7A36.48,36.48,0,0,1,140,34.6a32,32,0,0,1,7.75,11.06,34.59,34.59,0,0,1,2.7,13.64q0,.91,0,2a17.56,17.56,0,0,1-.13,1.9H90.65a14.31,14.31,0,0,0,3.29,5.19,20.75,20.75,0,0,0,5.69,4.06,32.78,32.78,0,0,0,7.91,2.65,49.22,49.22,0,0,0,9.95.93,51.68,51.68,0,0,0,10.85-1.15,78.12,78.12,0,0,0,10.32-2.91L144,84a63.45,63.45,0,0,1-6.28,2.54,54.62,54.62,0,0,1-6.63,1.82,68.67,68.67,0,0,1-7.22,1.1q-3.76.38-7.94.37a61,61,0,0,1-18.66-2.57,40.09,40.09,0,0,1-13.42-7,28.91,28.91,0,0,1-8.13-10.43A30.65,30.65,0,0,1,73,57Zm60.69-6.15A15.55,15.55,0,0,0,131,45.91a17.29,17.29,0,0,0-4.46-4,22.87,22.87,0,0,0-6.2-2.65,29.56,29.56,0,0,0-7.76-1,31.11,31.11,0,0,0-8.18,1A25.1,25.1,0,0,0,98,42.08a18.35,18.35,0,0,0-4.62,4,15.18,15.18,0,0,0-2.7,4.76Z"/><path class="cls-1" d="M163.43,69.35A49.11,49.11,0,0,0,177.54,75a68.63,68.63,0,0,0,15.78,1.82,46.15,46.15,0,0,0,9.09-.75,21.68,21.68,0,0,0,5.83-1.93,7.81,7.81,0,0,0,3.1-2.67,5.86,5.86,0,0,0,.91-3,4.85,4.85,0,0,0-1.95-3.85c-1.31-1.07-3.45-1.6-6.45-1.6a40.35,40.35,0,0,0-4.49.27l-5.05.56c-1.77.19-3.6.38-5.51.56s-3.84.27-5.8.27a37.81,37.81,0,0,1-10.94-1.39,20.7,20.7,0,0,1-7.35-3.8,14.16,14.16,0,0,1-4.12-5.69,19.49,19.49,0,0,1-1.28-7.09,18,18,0,0,1,2.25-8.88,21.13,21.13,0,0,1,6.41-7,32.11,32.11,0,0,1,10.08-4.62,48.55,48.55,0,0,1,13.18-1.66,73.6,73.6,0,0,1,7.94.45c2.77.31,5.48.71,8.16,1.21s5.24,1.08,7.7,1.74A57.71,57.71,0,0,1,221.55,30l-5,12.3a88.15,88.15,0,0,0-12.06-3.56,58.25,58.25,0,0,0-12.38-1.31,35.65,35.65,0,0,0-7.51.67,17.66,17.66,0,0,0-5,1.76,7.68,7.68,0,0,0-2.81,2.52,5.49,5.49,0,0,0-.88,3,4.56,4.56,0,0,0,.45,2,4.14,4.14,0,0,0,1.5,1.57,8,8,0,0,0,2.73,1,21,21,0,0,0,4.14.35,44.54,44.54,0,0,0,4.76-.27l5.24-.56q2.73-.3,5.64-.56c1.95-.18,3.93-.27,6-.27A32.82,32.82,0,0,1,216.28,50a19.49,19.49,0,0,1,7,3.74,15.42,15.42,0,0,1,4.17,5.67,18,18,0,0,1,1.39,7.11,19.28,19.28,0,0,1-2.3,9.25,21.25,21.25,0,0,1-6.85,7.4,35.72,35.72,0,0,1-11.31,4.9,62.56,62.56,0,0,1-15.64,1.76,80,80,0,0,1-10.53-.67,86.62,86.62,0,0,1-9.68-1.81,74.05,74.05,0,0,1-8.63-2.71,64.25,64.25,0,0,1-7.36-3.31Z"/><path class="cls-1" d="M246.05,37.48H230.81V25.61h15.24V6h15.83V25.61h15.23V37.48H261.88V88.71H246.05Z"/><path class="cls-1" d="M293,17a12.85,12.85,0,0,1-4.25-.66,10.16,10.16,0,0,1-3.24-1.82,8.07,8.07,0,0,1-2.06-2.68,7.44,7.44,0,0,1-.72-3.23,7.61,7.61,0,0,1,.72-3.29,7.76,7.76,0,0,1,2.06-2.65A10.3,10.3,0,0,1,288.7.88,12.85,12.85,0,0,1,293,.21a13,13,0,0,1,4.3.67,10.41,10.41,0,0,1,3.24,1.79,7.74,7.74,0,0,1,2.05,2.65,7.47,7.47,0,0,1,.73,3.29,7.31,7.31,0,0,1-.73,3.23,8,8,0,0,1-2.05,2.68,10.27,10.27,0,0,1-3.24,1.82A13,13,0,0,1,293,17ZM285,25.61h15.83v63.1H285Z"/><path class="cls-1" d="M305.84,25.56h18.34l16.42,38,4.27,10.64,4.28-10.64,16.42-38h18.34L354,88.71H335.73Z"/><path class="cls-1" d="M385.41,68.82a17.44,17.44,0,0,1,2-8.29,18,18,0,0,1,5.94-6.44,30.31,30.31,0,0,1,9.86-4.17A57.4,57.4,0,0,1,417,48.44a93.31,93.31,0,0,1,12.27.86,111.63,111.63,0,0,1,13.29,2.62,12.66,12.66,0,0,0-1.82-5.53A14.14,14.14,0,0,0,436.4,42a21.87,21.87,0,0,0-6.63-2.86,34.7,34.7,0,0,0-8.8-1,57.86,57.86,0,0,0-5.88.33q-3.21.31-6.63,1T401.69,41a43.93,43.93,0,0,0-6.23,2.3l-4.81-13Q394.24,29,398.32,28c2.73-.72,5.52-1.33,8.37-1.85s5.71-.92,8.56-1.2a81.83,81.83,0,0,1,8.29-.43q17.7,0,26.3,9t8.61,27.69V88.71H442.63V82.77a51.89,51.89,0,0,1-5.38,2.73,48.28,48.28,0,0,1-6.33,2.25,56.87,56.87,0,0,1-7.36,1.52,59.43,59.43,0,0,1-8.31.56,47.2,47.2,0,0,1-13-1.6A28.29,28.29,0,0,1,393,83.79a19,19,0,0,1-5.64-6.66A18.38,18.38,0,0,1,385.41,68.82Zm16.68-.54a5.87,5.87,0,0,0,.81,3,7.17,7.17,0,0,0,2.56,2.51A15.78,15.78,0,0,0,410,75.53a29,29,0,0,0,6.66.67,42.65,42.65,0,0,0,8.07-.75,46.66,46.66,0,0,0,7.27-2,37.84,37.84,0,0,0,6.1-2.83,25.77,25.77,0,0,0,4.55-3.32V64.54q-3.64-1-7.2-1.71t-6.79-1.1c-2.15-.26-4.19-.45-6.09-.56s-3.58-.16-5-.16a38.72,38.72,0,0,0-7.38.59,17,17,0,0,0-4.76,1.58,6.26,6.26,0,0,0-2.57,2.32A5.61,5.61,0,0,0,402.09,68.28Z"/><path class="cls-1" d="M473.22,0h15.83V88.71H473.22Z"/><path class="cls-1" d="M534.51,5.13h74.75V20h-57.8V41.87h49.09v14H551.46V88.71h-17Z"/><path class="cls-1" d="M625.42,17a12.85,12.85,0,0,1-4.25-.66,10.16,10.16,0,0,1-3.24-1.82,8.07,8.07,0,0,1-2.06-2.68,7.44,7.44,0,0,1-.72-3.23,7.61,7.61,0,0,1,.72-3.29,7.76,7.76,0,0,1,2.06-2.65A10.3,10.3,0,0,1,621.17.88a12.85,12.85,0,0,1,4.25-.67,13,13,0,0,1,4.3.67A10.3,10.3,0,0,1,633,2.67a7.74,7.74,0,0,1,2,2.65,7.47,7.47,0,0,1,.73,3.29,7.31,7.31,0,0,1-.73,3.23,8,8,0,0,1-2,2.68,10.16,10.16,0,0,1-3.24,1.82A13,13,0,0,1,625.42,17Zm-7.92,8.61h15.83v63.1H617.5Z"/><path class="cls-1" d="M647.46,0h15.82V88.71H647.46Z"/><path class="cls-1" d="M686.49,37.48H671.26V25.61h15.23V6h15.83V25.61h15.24V37.48H702.32V88.71H686.49Z"/><path class="cls-1" d="M722.06,57a29.64,29.64,0,0,1,2.62-12.27,30.93,30.93,0,0,1,7.54-10.35,36.88,36.88,0,0,1,12-7.17,50.55,50.55,0,0,1,32.51,0,36.38,36.38,0,0,1,12.3,7.41,32,32,0,0,1,7.76,11.06,34.59,34.59,0,0,1,2.7,13.64q0,.91,0,2c0,.7-.06,1.33-.13,1.9H739.7A14.59,14.59,0,0,0,743,68.34a20.81,20.81,0,0,0,5.7,4.06,32.78,32.78,0,0,0,7.91,2.65,49.14,49.14,0,0,0,9.95.93,51.75,51.75,0,0,0,10.85-1.15,78.12,78.12,0,0,0,10.32-2.91L793.07,84a62.65,62.65,0,0,1-6.29,2.54,54.62,54.62,0,0,1-6.63,1.82,68.27,68.27,0,0,1-7.22,1.1c-2.51.25-5.15.37-7.94.37a61.07,61.07,0,0,1-18.66-2.57,40.19,40.19,0,0,1-13.42-7,28.91,28.91,0,0,1-8.13-10.43A30.8,30.8,0,0,1,722.06,57Zm60.69-6.15a15.76,15.76,0,0,0-2.65-4.89,17.29,17.29,0,0,0-4.46-4,22.94,22.94,0,0,0-6.21-2.65,29.43,29.43,0,0,0-7.75-1,31.06,31.06,0,0,0-8.18,1A25,25,0,0,0,747,42.08a18.23,18.23,0,0,0-4.63,4,15.18,15.18,0,0,0-2.7,4.76Z"/><path class="cls-1" d="M810,25.61H825.8V34.7A68.13,68.13,0,0,1,836.87,28a62.25,62.25,0,0,1,11.6-4.34l4.65,14.49a50,50,0,0,0-16.06,4.1,28.82,28.82,0,0,0-11.26,9V88.71H810Z"/><path class="cls-1" d="M906.39,12.18h-18V3.52h45.86v8.66h-18V52.24h-9.88Z"/><path class="cls-1" d="M944.82,3.52h9.89l17.7,17.77L990.12,3.52H1000V52.24h-9.88v-35L972.41,34.26,954.71,17.2v35h-9.89Z"/></svg>