<svg width="11" height="12" viewBox="0 0 11 12" fill="none" xmlns="http://www.w3.org/2000/svg">
<path d="M9.1678 1.72135H8.0403V1.14069C8.0403 1.01609 7.99081 0.896602 7.9027 0.808499C7.8146 0.720395 7.6951 0.670898 7.57051 0.670898C7.44591 0.670898 7.32642 0.720395 7.23831 0.808499C7.15021 0.896602 7.10071 1.01609 7.10071 1.14069V1.72135H3.87418V1.14069C3.87418 1.01609 3.82468 0.896602 3.73658 0.808499C3.64848 0.720395 3.52898 0.670898 3.40439 0.670898C3.27979 0.670898 3.1603 0.720395 3.0722 0.808499C2.98409 0.896602 2.9346 1.01609 2.9346 1.14069V1.72135H1.80709C1.60803 1.72135 1.41093 1.76059 1.22704 1.83682C1.04316 1.91306 0.876105 2.02479 0.735436 2.16563C0.594766 2.30648 0.48324 2.47368 0.407234 2.65765C0.331229 2.84163 0.292235 3.03878 0.292482 3.23784V4.33716H10.6881V3.23784C10.6881 3.03838 10.6487 2.84087 10.5723 2.65663C10.4958 2.4724 10.3838 2.30506 10.2426 2.16419C10.1013 2.02332 9.93372 1.9117 9.7493 1.83571C9.56487 1.75972 9.36726 1.72085 9.1678 1.72135Z" fill="#1A313B"/>
<path d="M0.289064 9.56317C0.288817 9.76223 0.327816 9.95938 0.403822 10.1434C0.479828 10.3273 0.591354 10.4945 0.732023 10.6354C0.872693 10.7762 1.03974 10.888 1.22363 10.9642C1.40751 11.0404 1.60462 11.0797 1.80368 11.0797H9.16815C9.57034 11.0797 9.95607 10.9199 10.2405 10.6355C10.5249 10.3511 10.6846 9.96537 10.6846 9.56317V5.39893H0.289064V9.56317Z" fill="#1A313B"/>
</svg>
