<svg width="15" height="12" viewBox="0 0 15 12" fill="none" xmlns="http://www.w3.org/2000/svg">
<path d="M1.28789 5.1705C0.862127 5.17115 0.517507 5.51682 0.518157 5.94258C0.518806 6.36834 0.864479 6.71296 1.29024 6.71231L1.28789 5.1705ZM13.8854 6.46731C14.186 6.16579 14.1853 5.67768 13.8838 5.37708L8.97028 0.478552C8.66877 0.177954 8.18066 0.178698 7.88006 0.480215C7.57946 0.781731 7.58021 1.26984 7.88172 1.57044L12.2493 5.92469L7.89502 10.2922C7.59443 10.5938 7.59517 11.0819 7.89669 11.3825C8.1982 11.6831 8.68631 11.6823 8.98691 11.3808L13.8854 6.46731ZM1.29024 6.71231L13.3407 6.69393L13.3383 5.15212L1.28789 5.1705L1.29024 6.71231Z" fill="#232D32"/>
</svg>
