<svg width="8" height="12" viewBox="0 0 8 12" fill="none" xmlns="http://www.w3.org/2000/svg">
<path d="M3.68214 0.875249C2.73847 0.875249 1.83345 1.25011 1.16617 1.91739C0.498895 2.58467 0.124023 3.48969 0.124023 4.43336C0.124023 6.02141 2.44429 9.72747 3.33944 11.0964C3.37684 11.154 3.42804 11.2013 3.48838 11.2341C3.54872 11.2668 3.61629 11.284 3.68495 11.284C3.75361 11.284 3.82118 11.2668 3.88152 11.2341C3.94187 11.2013 3.99306 11.154 4.03046 11.0964C4.92561 9.72747 7.24587 6.02141 7.24587 4.43336C7.24587 3.96563 7.15366 3.5025 6.97449 3.07044C6.79533 2.63838 6.53274 2.24589 6.20174 1.91541C5.87074 1.58494 5.47784 1.32296 5.0455 1.14448C4.61316 0.966001 4.14987 0.87451 3.68214 0.875249ZM3.68214 6.65812C3.2448 6.65775 2.81738 6.52773 2.45393 6.28449C2.09047 6.04124 1.80729 5.6957 1.64018 5.29154C1.47307 4.88738 1.42954 4.44275 1.51509 4.01386C1.60064 3.58496 1.81143 3.19105 2.12081 2.88193C2.43018 2.57282 2.82426 2.36237 3.25323 2.27718C3.68219 2.192 4.12679 2.23591 4.53081 2.40336C4.93482 2.57081 5.28012 2.85428 5.52306 3.21794C5.766 3.58161 5.89566 4.00913 5.89566 4.44647C5.89665 4.7377 5.84011 5.02625 5.72929 5.29556C5.61847 5.56488 5.45555 5.80966 5.24988 6.01585C5.04421 6.22204 4.79985 6.38558 4.53081 6.49709C4.26178 6.60859 3.97337 6.66586 3.68214 6.66561V6.65812Z" fill="#1A313B"/>
</svg>
